<svg xmlns="http://www.w3.org/2000/svg" width="1200" height="800" viewBox="0 0 1200 800">
  <defs>
    <linearGradient id="bg" x1="0%" y1="0%" x2="100%" y2="100%">
      <stop offset="0%" style="stop-color:#f5f3ff"/>
      <stop offset="100%" style="stop-color:#ede9fe"/>
    </linearGradient>
  </defs>
  <rect width="1200" height="800" fill="url(#bg)"/>
  <rect x="40" y="40" width="1120" height="720" rx="16" fill="#fff" stroke="#e5e7eb" stroke-width="2"/>
  <!-- Sidebar -->
  <rect x="40" y="40" width="240" height="720" rx="16" fill="#1f2937"/>
  <circle cx="160" cy="100" r="30" fill="#4f46e5"/>
  <rect x="80" y="160" width="160" height="12" rx="6" fill="#374151"/>
  <rect x="80" y="200" width="120" height="10" rx="5" fill="#4b5563"/>
  <rect x="80" y="240" width="140" height="10" rx="5" fill="#4b5563"/>
  <rect x="80" y="280" width="100" height="10" rx="5" fill="#4b5563"/>
  <rect x="80" y="320" width="130" height="10" rx="5" fill="#4b5563"/>
  <!-- Header -->
  <rect x="320" y="60" width="200" height="16" rx="8" fill="#e5e7eb"/>
  <rect x="1000" y="56" width="120" height="32" rx="8" fill="#4f46e5"/>
  <!-- Stats Cards -->
  <rect x="320" y="120" width="250" height="120" rx="12" fill="#fff" stroke="#e5e7eb" stroke-width="1"/>
  <rect x="590" y="120" width="250" height="120" rx="12" fill="#fff" stroke="#e5e7eb" stroke-width="1"/>
  <rect x="860" y="120" width="250" height="120" rx="12" fill="#fff" stroke="#e5e7eb" stroke-width="1"/>
  <text x="360" y="170" font-family="system-ui" font-size="28" font-weight="bold" fill="#111827">$24,563</text>
  <text x="360" y="200" font-family="system-ui" font-size="14" fill="#6b7280">Total Revenue</text>
  <text x="630" y="170" font-family="system-ui" font-size="28" font-weight="bold" fill="#111827">1,234</text>
  <text x="630" y="200" font-family="system-ui" font-size="14" fill="#6b7280">Active Users</text>
  <text x="900" y="170" font-family="system-ui" font-size="28" font-weight="bold" fill="#111827">98.5%</text>
  <text x="900" y="200" font-family="system-ui" font-size="14" fill="#6b7280">Uptime</text>
  <!-- Chart Area -->
  <rect x="320" y="270" width="540" height="280" rx="12" fill="#fff" stroke="#e5e7eb" stroke-width="1"/>
  <text x="360" y="310" font-family="system-ui" font-size="16" font-weight="600" fill="#111827">Analytics Overview</text>
  <polyline points="360,480 420,440 480,460 540,400 600,420 660,360 720,380 780,320" stroke="#4f46e5" stroke-width="3" fill="none"/>
  <polyline points="360,500 420,470 480,490 540,450 600,470 660,430 720,450 780,410" stroke="#06b6d4" stroke-width="3" fill="none"/>
  <!-- Activity List -->
  <rect x="880" y="270" width="230" height="280" rx="12" fill="#fff" stroke="#e5e7eb" stroke-width="1"/>
  <text x="920" y="310" font-family="system-ui" font-size="16" font-weight="600" fill="#111827">Recent Activity</text>
  <rect x="920" y="340" width="150" height="8" rx="4" fill="#e5e7eb"/>
  <rect x="920" y="370" width="120" height="8" rx="4" fill="#e5e7eb"/>
  <rect x="920" y="400" width="140" height="8" rx="4" fill="#e5e7eb"/>
  <rect x="920" y="430" width="100" height="8" rx="4" fill="#e5e7eb"/>
  <rect x="920" y="460" width="130" height="8" rx="4" fill="#e5e7eb"/>
  <!-- Table -->
  <rect x="320" y="580" width="790" height="160" rx="12" fill="#fff" stroke="#e5e7eb" stroke-width="1"/>
  <rect x="340" y="600" width="750" height="30" rx="6" fill="#f9fafb"/>
  <rect x="340" y="650" width="750" height="1" fill="#e5e7eb"/>
  <rect x="340" y="680" width="750" height="1" fill="#e5e7eb"/>
  <rect x="340" y="710" width="750" height="1" fill="#e5e7eb"/>
</svg>
